# xmcd
#
# Track frame offsets:
#	150
#	13950
#	26475
#	38550
#	49800
#	60075
#	73800
#	85875
#	98850
#	111000
#	123900
#	136050
#
# Disc length: 1974 seconds
#
# Revision: 0
# Processed by: cddbd v1.5.2PL0 Copyright (c) Steve Scherf et al.
# Submitted via: EasyCDDAExtractor 16.0.6.1
#
DISCID=9507b40c
DTITLE=Γ.Χατζηνάσιος Βίκυ Μοσχολιού and Δήμητρα Γαλάνη  - Λεύκωμα
DYEAR=1976
DGENRE=Λαϊκά
TTITLE0=Είμαστε ‘μεις (Βίκυ Μοσχολιού)
TTITLE1=Ξενύχτησα στην πόρτα σου (Βίκυ Μοσχολιού)
TTITLE2=Κλεισ΄το ραδιόφωνο (Βίκυ Μοσχολιού)
TTITLE3=Άλλη μια μέρα (Βίκυ Μοσχολιού)
TTITLE4=Πι πι το παπί (Βίκυ Μοσχολιού)
TTITLE5=Είμαστε εμείς (Ορχηστρικό)
TTITLE6=Τα γαλάζια σου γράμματα (Δήμητρα  Γαλάνη)
TTITLE7=Τι να σου χαρίσω (Δήμητρα  Γαλάνη)
TTITLE8=Σύρε γιέ μου στην Αθήνα (Δήμητρα  Γαλάνη)
TTITLE9=Θλιμμένα χαμόγελα (Δήμητρα  Γαλάνη)
TTITLE10=Καληνύχτα σας (Δήμητρα  Γαλάνη)
TTITLE11=Τα γαλάζια σου γράμματα (Ορχηστρικό)
EXTD=
EXTT0=
EXTT1=
EXTT2=
EXTT3=
EXTT4=
EXTT5=
EXTT6=
EXTT7=
EXTT8=
EXTT9=
EXTT10=
EXTT11=
PLAYORDER=
